<?xml version="1.0" encoding="UTF-8"?><svg id="Ebene_2" xmlns="http://www.w3.org/2000/svg" viewBox="0 0 142.42 47.11"><defs><style>.cls-1{fill:#1d1d1b;}</style></defs><g id="Ebene_1-2"><path class="cls-1" d="M77.66,45.85v-3.75h.52l-.09,1.32h.12c.05-.28.12-.52.21-.73.09-.21.21-.37.36-.5.15-.12.33-.18.55-.18.05,0,.11,0,.18.01.07,0,.14.02.22.05l-.02.57c-.07-.03-.14-.06-.21-.07-.07-.01-.14-.02-.2-.02-.19,0-.36.07-.49.2-.14.13-.25.31-.35.54-.1.23-.18.47-.24.73v1.83h-.55Z"/><path class="cls-1" d="M81.34,45.94c-.2,0-.39-.04-.55-.11s-.29-.19-.39-.35c-.09-.16-.14-.36-.14-.6,0-.17.03-.32.09-.45.06-.13.15-.25.28-.35s.31-.18.52-.25c.22-.07.49-.12.81-.16.19-.02.34-.05.46-.08.12-.03.2-.07.26-.12.05-.06.08-.14.08-.26,0-.19-.07-.36-.2-.5-.13-.14-.35-.21-.64-.21-.15,0-.29.03-.44.08s-.28.14-.4.25c-.12.12-.19.29-.22.51l-.5-.17c.02-.17.08-.32.17-.46.09-.14.2-.26.33-.36.13-.1.29-.18.48-.23s.39-.08.6-.08c.31,0,.56.05.76.15.2.1.35.26.45.47s.15.48.15.81v.89c0,.15,0,.31.01.49,0,.18.02.35.03.53.01.18.03.34.05.49h-.5c-.02-.17-.03-.32-.04-.48-.01-.16-.01-.31-.01-.47h-.09c-.07.18-.17.35-.29.51-.12.16-.27.29-.45.38-.18.09-.4.14-.66.14ZM81.46,45.48c.11,0,.22-.02.34-.05.11-.03.23-.09.35-.17s.23-.19.34-.32.2-.29.29-.48v-.76s.21.04.21.04c-.08.08-.19.14-.32.19-.13.04-.28.07-.45.1-.17.02-.33.05-.5.08-.16.03-.32.07-.46.13-.14.06-.25.13-.34.23-.08.1-.13.24-.13.41,0,.21.06.37.19.47.13.1.29.16.48.16Z"/><path class="cls-1" d="M85.66,45.94c-.41,0-.72-.14-.93-.43s-.31-.71-.31-1.28v-2.13h.54v2.1c0,.41.07.72.2.93s.34.31.63.31c.16,0,.3-.04.42-.11.13-.07.24-.18.33-.32.1-.14.18-.31.24-.5.06-.19.11-.41.14-.64v-1.77h.53v3.75s-.5,0-.5,0l.09-1.21h-.12c-.06.3-.15.54-.26.74-.12.19-.26.34-.43.43-.17.09-.36.13-.57.13Z"/><path class="cls-1" d="M88.66,45.85v-3.75h.51l-.08,1.21h.1c.07-.29.16-.53.26-.72.11-.19.24-.34.39-.43.16-.1.33-.15.54-.15.25,0,.45.06.6.18.15.12.27.28.34.48.07.2.11.4.12.61h.1c.05-.27.13-.5.24-.69.1-.19.24-.33.4-.43s.35-.15.56-.15c.19,0,.36.04.5.12.14.08.26.19.36.34s.18.33.23.55c.05.22.08.47.08.75v2.09h-.54v-2.02c0-.3-.03-.55-.09-.74-.06-.19-.14-.34-.25-.44-.11-.1-.24-.15-.4-.15-.19,0-.36.07-.51.2-.15.13-.28.31-.38.54s-.17.49-.2.79v1.82h-.52v-1.94c0-.31-.03-.57-.08-.78-.05-.21-.14-.36-.25-.47-.11-.1-.25-.16-.42-.16-.2,0-.38.07-.53.21-.15.14-.27.33-.36.56-.09.23-.16.49-.19.77v1.79h-.53Z"/><path class="cls-1" d="M95.02,45.93c-.13,0-.23-.03-.3-.09s-.1-.15-.1-.28.03-.23.11-.28c.07-.06.17-.09.29-.09.14,0,.24.03.31.09.07.06.1.16.1.29,0,.24-.14.36-.41.36Z"/><path class="cls-1" d="M98.35,45.94c-.27,0-.5-.03-.7-.09-.2-.06-.37-.14-.5-.25-.13-.11-.23-.24-.3-.39-.07-.15-.1-.32-.09-.49l.48-.09c-.02.18.02.33.11.46.09.13.22.22.4.29.18.07.39.1.63.1.31,0,.54-.05.71-.16.17-.11.25-.26.25-.44,0-.15-.04-.26-.13-.34-.09-.08-.22-.15-.38-.2-.17-.05-.35-.09-.56-.13-.18-.04-.36-.09-.53-.13-.17-.05-.32-.11-.46-.19-.14-.08-.25-.18-.33-.31s-.12-.28-.12-.47c0-.23.06-.42.17-.58.12-.16.28-.29.5-.38s.48-.13.78-.13.57.05.78.15c.21.1.38.23.49.41.12.17.18.38.18.6l-.48.12c0-.19-.05-.34-.13-.46-.09-.12-.2-.2-.35-.26s-.32-.09-.53-.09c-.28,0-.5.05-.66.16-.16.11-.24.25-.24.44,0,.14.05.25.14.34s.22.15.38.2c.16.05.34.09.54.13.19.04.37.08.55.13.17.05.33.11.47.19.14.08.25.18.33.31s.12.29.12.48c0,.25-.06.45-.19.61-.13.16-.31.28-.54.36-.23.08-.49.12-.79.12Z"/><path class="cls-1" d="M101.89,45.93c-.32,0-.55-.09-.71-.27-.16-.18-.24-.45-.24-.8v-2.29h-.57v-.46h.36c.11,0,.19-.03.24-.07.05-.04.08-.11.09-.21l.07-.58h.35v.84h1.11v.47h-1.11v2.28c0,.2.04.35.13.43.09.09.22.13.39.13.09,0,.19-.01.29-.04.1-.02.21-.08.31-.16v.56c-.13.05-.26.09-.37.11-.12.02-.23.03-.32.03Z"/><path class="cls-1" d="M103.73,41.42c-.14,0-.24-.03-.31-.08-.07-.05-.1-.14-.1-.25s.03-.19.1-.25c.07-.06.17-.09.3-.09.14,0,.24.03.31.08.07.06.1.14.1.25s-.03.19-.1.24c-.07.06-.17.08-.3.08ZM103.45,45.85v-3.75h.54v3.75h-.54Z"/><path class="cls-1" d="M105.2,45.85v-3.75h.51l-.08,1.21h.1c.07-.29.16-.53.26-.72.11-.19.24-.34.39-.43.16-.1.33-.15.54-.15.25,0,.45.06.6.18.15.12.27.28.34.48.07.2.11.4.12.61h.1c.05-.27.13-.5.24-.69.1-.19.24-.33.4-.43s.35-.15.56-.15c.19,0,.36.04.5.12.14.08.26.19.36.34s.18.33.23.55c.05.22.08.47.08.75v2.09h-.54v-2.02c0-.3-.03-.55-.09-.74-.06-.19-.14-.34-.25-.44-.11-.1-.24-.15-.4-.15-.19,0-.36.07-.51.2-.15.13-.28.31-.38.54s-.17.49-.2.79v1.82h-.52v-1.94c0-.31-.03-.57-.08-.78-.05-.21-.14-.36-.25-.47-.11-.1-.25-.16-.42-.16-.2,0-.38.07-.53.21-.15.14-.27.33-.36.56-.09.23-.16.49-.19.77v1.79h-.53Z"/><path class="cls-1" d="M111.59,45.85v-3.75h.51l-.08,1.21h.1c.07-.29.16-.53.26-.72.11-.19.24-.34.39-.43.16-.1.33-.15.54-.15.25,0,.45.06.6.18.15.12.27.28.34.48.07.2.11.4.12.61h.1c.05-.27.13-.5.24-.69.1-.19.24-.33.4-.43s.35-.15.56-.15c.19,0,.36.04.5.12.14.08.26.19.36.34s.18.33.23.55c.05.22.08.47.08.75v2.09h-.54v-2.02c0-.3-.03-.55-.09-.74-.06-.19-.14-.34-.25-.44-.11-.1-.24-.15-.4-.15-.19,0-.36.07-.51.2-.15.13-.28.31-.38.54s-.17.49-.2.79v1.82h-.52v-1.94c0-.31-.03-.57-.08-.78-.05-.21-.14-.36-.25-.47-.11-.1-.25-.16-.42-.16-.2,0-.38.07-.53.21-.15.14-.27.33-.36.56-.09.23-.16.49-.19.77v1.79h-.53Z"/><path class="cls-1" d="M119.55,45.94c-.29,0-.55-.04-.77-.13-.22-.09-.4-.22-.55-.39s-.26-.37-.34-.6c-.08-.23-.11-.49-.11-.78s.04-.56.12-.81.19-.46.34-.64c.15-.18.32-.32.54-.42.21-.1.45-.15.73-.15.24,0,.45.04.65.12.19.08.36.2.5.37.14.17.25.38.32.63.08.26.11.56.09.91l-2.93.02v-.41h2.6s-.18.3-.18.3c.02-.32-.01-.59-.1-.81-.09-.21-.21-.37-.37-.48s-.36-.16-.58-.16c-.24,0-.45.06-.62.19-.18.12-.31.3-.41.53-.1.23-.15.51-.15.84,0,.46.1.81.31,1.06.21.25.52.38.94.38.16,0,.3-.02.42-.06.12-.04.22-.09.31-.16.08-.07.16-.15.21-.24s.1-.19.13-.3l.48.11c-.05.18-.12.33-.21.47-.09.14-.2.25-.33.35s-.28.17-.45.22c-.17.05-.36.07-.58.07Z"/><path class="cls-1" d="M122.03,45.93c-.13,0-.23-.03-.3-.09-.07-.06-.1-.15-.1-.28s.03-.23.11-.28c.07-.06.17-.09.29-.09.14,0,.24.03.31.09.07.06.1.16.1.29,0,.24-.14.36-.41.36Z"/><path class="cls-1" d="M123.98,45.85v-5.07h.54v2.92c.2-.11.4-.23.59-.36s.36-.28.52-.43.3-.29.42-.44c.12-.14.21-.27.27-.38h.64c-.11.18-.23.37-.38.55-.15.18-.31.35-.49.5s-.36.29-.55.4-.37.19-.54.24v.08c.21,0,.41.03.58.11.17.08.33.19.48.34.15.14.29.31.42.5s.26.39.39.6l.25.43h-.61l-.19-.33c-.15-.26-.3-.49-.46-.69-.16-.2-.33-.37-.52-.49-.19-.12-.4-.19-.65-.19h-.16v1.7h-.54Z"/><path class="cls-1" d="M127.85,45.85v-5.07h.54v5.07h-.54Z"/><path class="cls-1" d="M130.47,45.94c-.2,0-.39-.04-.55-.11-.17-.08-.3-.19-.39-.35-.09-.16-.14-.36-.14-.6,0-.17.03-.32.09-.45s.15-.25.28-.35.31-.18.52-.25c.22-.07.49-.12.81-.16.19-.02.34-.05.46-.08.12-.03.2-.07.25-.12s.08-.14.08-.26c0-.19-.07-.36-.2-.5-.13-.14-.35-.21-.64-.21-.15,0-.29.03-.44.08s-.28.14-.4.25c-.12.12-.19.29-.22.51l-.5-.17c.02-.17.08-.32.17-.46.09-.14.2-.26.33-.36.13-.1.29-.18.48-.23s.39-.08.6-.08c.31,0,.56.05.76.15.2.1.35.26.45.47.1.21.15.48.15.81v.89c0,.15,0,.31.01.49,0,.18.02.35.03.53.01.18.03.34.05.49h-.5c-.02-.17-.03-.32-.04-.48-.01-.16-.01-.31-.01-.47h-.09c-.07.18-.17.35-.29.51-.12.16-.27.29-.45.38-.18.09-.4.14-.66.14ZM130.58,45.48c.11,0,.22-.02.34-.05.11-.03.23-.09.35-.17s.23-.19.34-.32c.11-.13.2-.29.29-.48v-.76s.21.04.21.04c-.08.08-.19.14-.32.19-.13.04-.28.07-.45.1-.17.02-.33.05-.5.08-.17.03-.32.07-.46.13-.14.06-.25.13-.34.23-.09.1-.13.24-.13.41,0,.21.06.37.19.47.13.1.29.16.48.16Z"/><path class="cls-1" d="M133.59,45.85v-3.75h.52l-.08,1.21h.1c.07-.3.16-.54.28-.73.12-.19.26-.33.44-.43.17-.09.38-.14.6-.14.41,0,.72.15.94.44.21.29.32.72.32,1.28v2.11h-.55v-2.07c0-.43-.07-.75-.21-.96-.14-.21-.34-.31-.61-.31-.24,0-.45.08-.63.23-.17.15-.31.35-.41.6-.1.25-.16.52-.17.81v1.7h-.54Z"/><path class="cls-1" d="M139.22,47.11c-.39,0-.71-.03-.96-.09-.25-.06-.43-.15-.55-.28-.12-.13-.18-.28-.18-.46,0-.22.09-.41.26-.55.17-.15.44-.25.8-.3v-.14c-.26,0-.45-.03-.58-.09-.13-.07-.19-.16-.19-.28,0-.13.06-.24.19-.32.13-.09.33-.17.61-.25v-.14c-.29,0-.51-.09-.66-.26s-.23-.39-.23-.67c0-.25.07-.47.2-.65.13-.18.32-.32.57-.41.25-.09.55-.14.88-.14h1.72v.48l-1.14-.18v.13c.27.06.48.17.63.32.16.15.23.35.23.59,0,.2-.06.38-.18.54-.12.16-.3.28-.54.36-.23.09-.53.13-.87.13-.07,0-.14,0-.21,0-.08,0-.17-.02-.28-.04-.14.08-.25.16-.34.23s-.13.14-.13.2c0,.06.04.11.13.14.09.03.19.05.31.06.12.01.23.01.34.01h.78c.09,0,.21.01.36.03.15.02.29.06.44.12s.27.16.37.29c.1.13.15.31.15.52,0,.26-.08.47-.23.63-.16.16-.38.27-.66.34-.29.07-.64.11-1.05.11ZM139.2,46.65c.33,0,.6-.02.82-.07.21-.04.37-.11.48-.21.1-.09.16-.21.16-.35s-.04-.24-.11-.32c-.07-.08-.16-.13-.27-.16-.11-.03-.22-.05-.33-.05s-.2,0-.27,0h-.83c-.31.07-.52.17-.63.28-.11.12-.17.24-.17.36,0,.15.05.26.16.34.11.07.25.12.43.15.18.02.37.04.57.04ZM139.32,44.08c.32,0,.57-.07.75-.2s.26-.31.26-.54-.09-.43-.26-.59c-.17-.16-.43-.23-.78-.23-.32,0-.58.07-.75.22-.18.15-.27.34-.27.57,0,.15.04.28.12.4.08.12.2.21.35.27.15.06.34.09.57.09Z"/><path class="cls-1" d="M142.01,45.93c-.13,0-.23-.03-.3-.09s-.1-.15-.1-.28.03-.23.11-.28c.07-.06.17-.09.29-.09.14,0,.24.03.31.09.07.06.1.16.1.29,0,.24-.14.36-.41.36Z"/><path class="cls-1" d="M2.38,27.99c-.8-.3-1.5-.64-2.09-1.05L0,25.21c-.02-.18.02-.32.1-.43.08-.11.19-.17.34-.18s.28.04.41.16c.85.75,1.78,1.38,2.79,1.89,1.01.5,1.9.76,2.67.76.53,0,.96-.13,1.3-.38s.5-.6.5-1.03c0-.35-.13-.69-.38-1s-.65-.65-1.19-1.01c-.54-.36-1.31-.83-2.32-1.41-.83-.48-1.5-.9-2.01-1.25-.51-.35-.91-.75-1.23-1.2-.31-.45-.47-.96-.47-1.54,0-.83.34-1.52,1.02-2.07s1.64-.82,2.87-.82c1.06,0,2.22.23,3.49.67l.22,1.44c.03.23,0,.4-.07.53s-.2.19-.36.19-.32-.06-.48-.19c-.72-.56-1.43-1.02-2.14-1.38-.71-.36-1.35-.54-1.92-.54-.5,0-.89.11-1.19.34-.3.22-.44.51-.44.86,0,.51.3,1.01.89,1.49.59.48,1.43,1.01,2.5,1.59,1.41.77,2.42,1.48,3.02,2.13.6.65.9,1.41.9,2.27,0,1.01-.34,1.82-1.03,2.43s-1.64.91-2.86.91c-.88,0-1.72-.15-2.52-.45Z"/><path class="cls-1" d="M11.64,27.59c-.4-.56-.59-1.46-.58-2.69l.02-8.37h-1.06v-.31l2.98-3.25v3.01h4.81v.55h-4.81v9.21c0,.83.06,1.41.18,1.72.12.31.31.47.57.47.35,0,.79-.26,1.31-.77.52-.51,1.06-1.22,1.62-2.12.08-.14.19-.23.34-.26s.27,0,.38.1c.11.1.17.23.17.41v1.85c-.56.34-1.23.64-2,.9-.77.26-1.48.4-2.12.4-.82,0-1.43-.28-1.83-.84Z"/><path class="cls-1" d="M20.06,13.58c-.22-.19-.33-.44-.31-.75,0-.32.11-.59.34-.81.22-.22.51-.32.87-.32s.61.1.83.29c.22.19.32.45.32.77s-.12.57-.35.78-.52.32-.88.32c-.32,0-.59-.1-.82-.29ZM19.94,15.98h1.95v12.17h-1.95v-12.17Z"/><path class="cls-1" d="M25.23,19.35l-.36-3.22,1.92-.31.38,3.25v9.09h-1.95v-8.8ZM32.19,17.78c-.38-.53-.88-.79-1.5-.79-.55,0-1.11.19-1.71.57-.59.38-1.27.99-2.02,1.84l-.02-.48c.79-1.06,1.56-1.86,2.32-2.39.76-.54,1.53-.81,2.3-.81s1.41.27,1.98.81c.57.54.93,1.39,1.09,2.56h.07v9.07h-1.95v-7.86c0-1.14-.19-1.97-.57-2.5ZM39.72,17.78c-.38-.53-.88-.79-1.5-.79-.55,0-1.11.19-1.71.57-.59.38-1.26.99-2,1.84l-.05-.48c.79-1.06,1.56-1.86,2.32-2.39.76-.54,1.53-.81,2.3-.81.9,0,1.65.37,2.25,1.11.6.74.9,1.93.9,3.58v7.74h-1.95v-7.86c0-1.14-.19-1.97-.57-2.5Z"/><path class="cls-1" d="M45.38,19.35l-.36-3.22,1.92-.31.38,3.25v9.09h-1.95v-8.8ZM52.34,17.78c-.38-.53-.88-.79-1.5-.79-.55,0-1.11.19-1.71.57-.59.38-1.27.99-2.02,1.84l-.02-.48c.79-1.06,1.56-1.86,2.32-2.39.76-.54,1.53-.81,2.3-.81s1.41.27,1.98.81c.57.54.93,1.39,1.09,2.56h.07v9.07h-1.95v-7.86c0-1.14-.19-1.97-.57-2.5ZM59.87,17.78c-.38-.53-.88-.79-1.5-.79-.55,0-1.11.19-1.71.57-.59.38-1.26.99-2,1.84l-.05-.48c.79-1.06,1.56-1.86,2.32-2.39.76-.54,1.53-.81,2.3-.81.9,0,1.65.37,2.25,1.11.6.74.9,1.93.9,3.58v7.74h-1.95v-7.86c0-1.14-.19-1.97-.57-2.5Z"/><path class="cls-1" d="M15.76,45.52c-.87-.28-1.6-.6-2.19-.97l-.41-2.55c-.03-.26.02-.47.14-.64.13-.17.3-.26.5-.27.21,0,.41.07.6.23.98.87,2.06,1.59,3.25,2.18,1.19.59,2.15.88,2.89.88.32,0,.58-.06.78-.18s.3-.32.3-.59c0-.19-.09-.39-.28-.6s-.57-.51-1.17-.91c-.59-.4-1.49-.95-2.69-1.64-.87-.51-1.55-.95-2.06-1.3-.5-.35-.93-.77-1.27-1.25-.34-.48-.52-1.03-.52-1.66,0-.91.38-1.68,1.13-2.28.75-.61,1.83-.91,3.22-.91,1.03,0,2.25.2,3.68.6l.34,2.14c.05.34,0,.6-.12.79-.13.19-.31.29-.54.29s-.47-.1-.71-.31c-.83-.72-1.66-1.32-2.48-1.8-.82-.48-1.48-.72-1.97-.72-.27,0-.5.07-.69.2-.18.14-.28.3-.28.49,0,.37.31.81.93,1.31.62.5,1.41,1.01,2.37,1.5,1.47.77,2.55,1.52,3.21,2.26.66.74,1,1.56,1,2.48,0,1.07-.39,1.95-1.15,2.63-.77.68-1.84,1.02-3.2,1.02-.88,0-1.76-.14-2.62-.42Z"/><path class="cls-1" d="M25.53,45.05c-.5-.59-.76-1.62-.76-3.08l.05-7.72h-1.25v-.48l4.33-3.82v3.46h4.71v.84h-4.71v9.14c0,.72.04,1.19.11,1.42.07.23.18.34.32.34.22,0,.57-.31,1.05-.94.47-.63,1.01-1.5,1.6-2.62.13-.22.3-.36.52-.41s.41,0,.58.14c.17.14.25.35.25.63v2.72c-.71.35-1.46.65-2.27.9-.81.25-1.58.37-2.32.37-.96,0-1.7-.3-2.2-.89Z"/><path class="cls-1" d="M35.26,44.63c-.61-.86-.91-2.05-.91-3.57v-7.62h3.13v7.84c0,.8.15,1.43.44,1.88.3.45.74.67,1.33.67.48,0,.98-.16,1.49-.49.51-.33,1.01-.78,1.49-1.36v.7c-.55.95-1.23,1.72-2.06,2.33-.83.61-1.66.91-2.51.91-.99,0-1.8-.43-2.4-1.29ZM41.83,42.43v-9.02h3.15v8.51l.55,3.66h-3.15l-.55-3.15Z"/><path class="cls-1" d="M52.68,45.6c-.54-.22-1.01-.55-1.41-.99-.4-.43-.67-.95-.82-1.56h.34l-.26,2.53h-2.72l.43-4.14v-12.46l3.08-.48v10.39c0,1.22.19,2.3.58,3.25.38.95.86,1.68,1.43,2.19s1.13.77,1.67.77c.64,0,1.12-.36,1.44-1.08.32-.72.48-1.59.48-2.62,0-.93-.13-1.89-.4-2.89-.26-.99-.66-1.83-1.18-2.51-.52-.68-1.15-1.03-1.89-1.05-.42,0-.82.12-1.21.36s-.77.62-1.14,1.13v-.79c.5-.77,1.09-1.4,1.78-1.88.69-.48,1.45-.72,2.28-.72.77,0,1.52.22,2.24.65.72.43,1.31,1.09,1.78,1.97.46.88.7,1.95.7,3.2,0,1.36-.27,2.58-.81,3.66-.54,1.07-1.23,1.91-2.08,2.51-.85.6-1.74.9-2.67.9-.56,0-1.11-.11-1.65-.34Z"/><path class="cls-1" d="M64.03,45.16c-.89-.52-1.58-1.24-2.08-2.15-.5-.91-.75-1.96-.75-3.13s.28-2.35.83-3.39c.55-1.04,1.31-1.87,2.26-2.49.95-.62,2.02-.93,3.19-.93.93,0,1.74.2,2.44.59.7.39,1.23.92,1.61,1.58.38.66.57,1.37.57,2.14,0,.56-.1.97-.29,1.24s-.43.43-.71.49c-.28.06-.65.1-1.09.1h-6.3v-.82h6.23l-1.11.65.02-.63c0-.69-.09-1.37-.26-2.04-.18-.67-.46-1.23-.84-1.68-.38-.45-.87-.67-1.44-.67-.48,0-.89.15-1.23.44-.34.3-.6.71-.78,1.25-.18.54-.28,1.17-.28,1.89,0,.91.17,1.85.52,2.81.34.96.89,1.78,1.64,2.44.75.67,1.68,1,2.8,1,.48,0,.94-.08,1.37-.25.43-.17.86-.43,1.27-.78l.34.38c-.61.85-1.31,1.52-2.1,2.01-.79.49-1.74.73-2.83.73s-2.1-.26-2.99-.78Z"/><path class="cls-1" d="M72.47,26.14c-13.07-12.35,1.83-32.29,17.75-24.3,15.55,8.74,7.27,32.28-10.23,28.3,10.59,1.38,19.3-9.2,15.22-19.14-2.94-7.7-12.87-10.89-19.78-6.43-7.37,4.49-8.68,15.09-2.96,21.56h0Z"/><path class="cls-1" d="M90,23.06c-8.66,9.67-23.19-1.26-17.38-12.63,6.19-11.19,23.39-5.22,20.19,7.36.91-10.44-12.62-15.44-17.92-6.15-4.72,9.58,6.87,18.01,15.11,11.42h0Z"/><path class="cls-1" d="M82.77,10.16c7.73-.93,9.25,10.11,2.03,12.34-4.97,1.63-10.06-3.41-8.12-8.32.56-1.4,1.63-2.53,2.91-3.05-3.91,3.77-.66,10.36,4.46,8.9,5.04-1.65,4.11-8.88-1.28-9.87h0Z"/></g></svg>